<svg width="140" height="50" viewBox="0 0 140 50" fill="none" xmlns="http://www.w3.org/2000/svg">
<g clip-path="url(#clip0_25_12)">
<path d="M72.2793 16.5612L78.9399 16.1471C79.0919 17.1944 79.3705 17.9737 79.8263 18.5339C80.5608 19.4106 81.5738 19.849 82.9161 19.849C83.9038 19.849 84.6889 19.6298 85.2207 19.1671C85.7272 18.8018 86.0311 18.2173 86.0311 17.6084C86.0311 17.0239 85.7525 16.4637 85.2714 16.0984C84.7648 15.66 83.5745 15.2216 81.7004 14.832C78.636 14.1744 76.4327 13.2976 75.1411 12.1773C73.8495 11.1301 73.1151 9.59573 73.1657 7.96397C73.1657 6.84366 73.5203 5.72335 74.1787 4.79788C74.9385 3.75063 75.9769 2.92257 77.2178 2.45983C78.5601 1.89968 80.4342 1.60742 82.7894 1.60742C85.6766 1.60742 87.8799 2.11887 89.3994 3.16612C90.919 4.18901 91.8307 5.84512 92.1093 8.1101L85.5246 8.47542C85.3473 7.50124 84.9928 6.79495 84.4103 6.33222C83.8278 5.86948 83.068 5.65029 82.0803 5.65029C81.2699 5.65029 80.6621 5.82077 80.2569 6.13738C79.877 6.42963 79.6237 6.86802 79.6491 7.35511C79.6491 7.72043 79.8517 8.06139 80.1556 8.28058C80.4848 8.57284 81.2699 8.84074 82.5109 9.08429C85.5753 9.71751 87.7533 10.3507 89.0955 11.0083C90.4378 11.6659 91.4002 12.4696 91.9826 13.4194C92.5905 14.3936 92.8944 15.5139 92.869 16.6586C92.869 18.0224 92.4638 19.3863 91.6534 20.531C90.8177 21.7243 89.6527 22.6498 88.2851 23.21C86.8415 23.8188 85.0181 24.1354 82.8401 24.1354C78.9906 24.1354 76.3314 23.4292 74.8372 21.9922C73.343 20.5553 72.4566 18.7531 72.2793 16.5612ZM1.59551 23.7701V1.9971H13.2706C15.4233 1.9971 17.0948 2.16758 18.2344 2.5329C19.3488 2.87386 20.3365 3.58015 20.9949 4.52997C21.7294 5.57722 22.0839 6.79495 22.0586 8.06139C22.1346 10.2046 20.9949 12.2504 19.0449 13.322C18.2851 13.736 17.4494 14.0283 16.5883 14.1744C17.2214 14.3449 17.8546 14.6371 18.4117 14.9781C18.8423 15.3191 19.1968 15.7087 19.5261 16.1228C19.9059 16.5368 20.2352 16.9995 20.5138 17.4866L23.9074 23.7945H15.9551L12.2069 17.097C11.7258 16.2445 11.3206 15.6844 10.9407 15.4165C10.4342 15.0755 9.82634 14.905 9.21852 14.905H8.61071V23.7458H1.59551V23.7701ZM8.61071 10.8135H11.5738C12.2069 10.7648 12.8148 10.6673 13.4226 10.5212C13.8784 10.4481 14.2836 10.2046 14.5622 9.83928C15.246 8.96251 15.1447 7.72043 14.309 6.96544C13.8531 6.60012 12.9667 6.40528 11.7004 6.40528H8.61071V10.8135ZM0 42.4257L6.66064 42.0117C6.81259 43.059 7.09117 43.8383 7.54703 44.3985C8.25615 45.2752 9.2945 45.738 10.6368 45.738C11.6245 45.738 12.4096 45.5188 12.9414 45.056C13.4479 44.6664 13.7518 44.1062 13.7518 43.4973C13.7518 42.9128 13.4732 42.3527 12.992 41.9874C12.4855 41.549 11.2952 41.1106 9.3958 40.7209C6.3314 40.0633 4.12808 39.1866 2.83647 38.0663C1.54486 37.019 0.81042 35.4847 0.861071 33.8529C0.861071 32.7326 1.21563 31.6123 1.8741 30.6868C2.63386 29.6396 3.67221 28.8115 4.91317 28.3488C6.25543 27.7886 8.12952 27.4964 10.4848 27.4964C13.3719 27.4964 15.5753 28.0078 17.0948 29.0551C18.6143 30.1023 19.5007 31.7341 19.7793 33.9991L13.1946 34.3644C13.0174 33.3902 12.6628 32.6839 12.0803 32.2212C11.5232 31.7584 10.7381 31.5392 9.75036 31.5636C8.93994 31.5636 8.33213 31.7341 7.92692 32.075C7.52171 32.3673 7.29378 32.8057 7.3191 33.2928C7.3191 33.6581 7.52171 33.9991 7.82562 34.2182C8.15485 34.5105 8.93994 34.7784 10.1809 35.0219C13.2453 35.6552 15.4233 36.2884 16.7656 36.946C18.1078 37.6035 19.0702 38.4072 19.6527 39.3571C20.2605 40.3312 20.5644 41.4516 20.5644 42.5719C20.5644 43.9357 20.1339 45.2752 19.3488 46.4199C18.513 47.6133 17.348 48.5388 15.9805 49.0989C14.5369 49.7078 12.7135 50.0244 10.5355 50.0244C6.68596 50.0244 4.02677 49.3181 2.53256 47.8812C1.03835 46.4199 0.202605 44.6177 0 42.4257Z" fill="white"/>
<path d="M33.6831 40.7209L39.8119 42.4988C39.4826 43.9844 38.7988 45.397 37.8618 46.6391C37.0007 47.735 35.8611 48.5874 34.5695 49.1476C33.2525 49.7077 31.581 50 29.555 50C27.0984 50 25.0724 49.659 23.5275 48.9771C21.9573 48.2952 20.6151 47.0774 19.4754 45.3483C18.3357 43.6191 17.7786 41.4028 17.7786 38.6995C17.7786 35.095 18.7663 32.3185 20.767 30.3945C22.7677 28.4705 25.5789 27.4963 29.2258 27.4963C32.0876 27.4963 34.3162 28.0565 35.9624 29.1524C37.5832 30.2728 38.7988 31.9776 39.6093 34.2669L33.4298 35.5821C33.2779 35.0706 33.0499 34.5592 32.746 34.1208C32.3661 33.6093 31.885 33.2197 31.3025 32.9274C30.72 32.6352 30.0615 32.5134 29.403 32.5134C27.8075 32.5134 26.5919 33.1223 25.7562 34.3643C25.123 35.2655 24.7938 36.7024 24.7938 38.6507C24.7938 41.0619 25.1737 42.718 25.9334 43.6191C26.6932 44.5202 27.7569 44.9586 29.1498 44.9586C30.492 44.9586 31.5051 44.5933 32.1889 43.887C32.8727 43.132 33.3792 42.0847 33.6831 40.7209ZM47.992 27.8617H54.9819V35.4846H62.6303V27.8617H69.6708V49.6347H62.6303V40.8183H54.9819V49.6347H47.992V27.8617Z" fill="white"/>
<path d="M68.7084 38.7482C68.7084 35.1924 69.7467 32.416 71.7981 30.4432C73.8495 28.4705 76.7366 27.472 80.4088 27.472C84.1823 27.472 87.0695 28.4462 89.1208 30.3945C91.1722 32.3429 92.1852 35.0706 92.1852 38.5777C92.1852 41.1349 91.7294 43.2051 90.843 44.8368C89.9819 46.4442 88.6397 47.7594 86.9935 48.6361C85.2967 49.5373 83.1947 50 80.6874 50C78.1295 50 76.0275 49.6103 74.356 48.831C72.6339 48.0029 71.2156 46.7121 70.2786 45.1291C69.2402 43.4242 68.7084 41.3054 68.7084 38.7482ZM75.6983 38.7725C75.6983 40.9644 76.1288 42.5475 76.9645 43.5217C77.8003 44.4715 78.9653 44.9586 80.4342 44.9586C81.9284 44.9586 83.0933 44.4959 83.9291 43.546C84.7648 42.5962 85.17 40.9157 85.17 38.4803C85.17 36.4345 84.7395 34.9245 83.8784 33.999C83.0174 33.0492 81.8524 32.5865 80.3835 32.5865C79.0919 32.5377 77.8509 33.0735 76.9899 34.0234C76.1288 34.9732 75.6983 36.5562 75.6983 38.7725ZM99.3524 38.7482C99.3524 35.1924 100.391 32.416 102.442 30.4432C104.493 28.4705 107.381 27.472 111.053 27.472C114.826 27.472 117.739 28.4462 119.765 30.3945C121.791 32.3429 122.829 35.0706 122.829 38.5777C122.829 41.1349 122.373 43.2051 121.487 44.8368C120.626 46.4442 119.284 47.7594 117.637 48.6361C115.941 49.5373 113.839 50 111.331 50C108.774 50 106.671 49.6103 105 48.831C103.278 48.0029 101.86 46.7121 100.923 45.1291C99.8842 43.4242 99.3524 41.3054 99.3524 38.7482ZM106.342 38.7725C106.342 40.9644 106.773 42.5475 107.609 43.5217C108.444 44.4715 109.609 44.9586 111.078 44.9586C112.572 44.9586 113.737 44.4959 114.573 43.546C115.409 42.5962 115.814 40.9157 115.814 38.4803C115.814 36.4345 115.384 34.9245 114.522 33.999C113.661 33.0492 112.496 32.5865 111.027 32.5865C109.736 32.5377 108.47 33.0735 107.634 34.0234C106.773 34.9732 106.342 36.5562 106.342 38.7725Z" fill="white"/>
<path d="M122.095 27.8617H129.085V44.2767H140V49.6347H122.069V27.8617H122.095Z" fill="white"/>
<path d="M114.39 26.6051C121.428 21.5053 123.598 12.8602 119.237 7.29584C114.877 1.73146 105.637 1.35489 98.6 6.45474C91.5627 11.5546 89.3927 20.1997 93.7531 25.764C98.1134 31.3284 107.353 31.705 114.39 26.6051Z" fill="white"/>
<path d="M114.39 26.6051C121.428 21.5053 123.598 12.8602 119.237 7.29583C114.877 1.73145 105.637 1.35488 98.6 6.45474C91.5627 11.5546 89.3927 20.1997 93.7531 25.764C98.1134 31.3284 107.353 31.705 114.39 26.6051Z" fill="black"/>
<path d="M114.39 26.6051C121.428 21.5053 123.598 12.8602 119.237 7.29583C114.877 1.73145 105.637 1.35488 98.6 6.45474C91.5627 11.5546 89.3927 20.1997 93.7531 25.764C98.1134 31.3284 107.353 31.705 114.39 26.6051Z" stroke="white" stroke-width="4" stroke-miterlimit="10"/>
<path d="M99.3777 14.9294L101.91 13.2245L105.025 17.4866C105.557 18.1685 105.962 18.8992 106.266 19.7029C106.444 20.3117 106.393 20.9693 106.14 21.5538C105.81 22.2845 105.279 22.8933 104.569 23.3317C103.734 23.8919 103.025 24.2085 102.417 24.3059C101.834 24.4033 101.226 24.3059 100.669 24.0623C100.062 23.7701 99.5297 23.3561 99.1245 22.8203L101.302 20.8719C101.48 21.1398 101.708 21.3833 101.961 21.5782C102.138 21.6999 102.341 21.773 102.569 21.773C102.746 21.773 102.923 21.6999 103.05 21.6025C103.303 21.4564 103.48 21.1641 103.455 20.8719C103.379 20.4579 103.202 20.0438 102.923 19.7272L99.3777 14.9294ZM106.975 17.6327L109.28 15.8792C109.533 16.1714 109.863 16.3906 110.217 16.5124C110.724 16.6585 111.255 16.5611 111.686 16.2445C111.99 16.0497 112.243 15.7818 112.344 15.4408C112.496 15.0024 112.243 14.5153 111.787 14.3692C111.711 14.3449 111.635 14.3205 111.559 14.3205C111.255 14.2961 110.724 14.4179 109.938 14.7345C108.647 15.246 107.634 15.4408 106.874 15.3677C106.14 15.2947 105.456 14.9294 105.051 14.3205C104.747 13.9065 104.595 13.4194 104.569 12.9323C104.569 12.3721 104.721 11.812 105.051 11.3492C105.532 10.6917 106.114 10.1315 106.823 9.69312C107.887 8.98684 108.824 8.64587 109.635 8.64587C110.445 8.64587 111.205 9.01119 111.914 9.76619L109.635 11.4954C109.179 10.9352 108.318 10.8134 107.735 11.2518L107.659 11.3249C107.406 11.471 107.229 11.6902 107.127 11.9581C107.051 12.1529 107.102 12.3721 107.229 12.5426C107.33 12.6644 107.482 12.7618 107.659 12.7618C107.862 12.7862 108.216 12.6887 108.723 12.4695C109.989 11.9581 110.952 11.6658 111.61 11.5684C112.167 11.471 112.75 11.5197 113.281 11.7389C113.763 11.9337 114.168 12.2747 114.446 12.6887C114.801 13.1758 115.004 13.7603 115.029 14.3692C115.054 15.0024 114.877 15.6113 114.522 16.1471C114.067 16.8047 113.484 17.3648 112.8 17.8032C111.407 18.7287 110.268 19.1184 109.356 18.9722C108.368 18.8261 107.558 18.339 106.975 17.6327Z" fill="white"/>
</g>
<defs>
<clipPath id="clip0_25_12">
<rect width="140" height="50" fill="white"/>
</clipPath>
</defs>
</svg>
