<svg width="13" height="13" viewBox="0 0 13 13" fill="none" xmlns="http://www.w3.org/2000/svg">
<path d="M7.747 3.16992L7 3.83292V3.88192C7.618 4.55692 8 5.48092 8 6.49992C8 7.51992 7.618 8.44292 7 9.11792V9.16692L7.747 9.82992C8.523 8.96592 9 7.79292 9 6.49992C9 5.20692 8.523 4.03392 7.747 3.16992Z" fill="white"/>
<path d="M0 4.5V6.5V8.5H2L5 11.5V1.5L2 4.5H0Z" fill="white"/>
<path d="M9.32001 1.771L8.57201 2.435C9.46601 3.549 10 4.962 10 6.5C10 8.038 9.46601 9.452 8.57301 10.564L9.32001 11.228C10.371 9.939 11 8.294 11 6.5C11 4.707 10.371 3.061 9.32001 1.771Z" fill="white"/>
<path d="M10.848 0.41394L10.096 1.08194C11.286 2.55994 12 4.44494 12 6.49994C12 8.55494 11.286 10.4389 10.096 11.9179L10.848 12.5859C12.191 10.9299 13 8.80994 13 6.49994C13 4.18994 12.191 2.06994 10.848 0.41394Z" fill="white"/>
</svg>
